<mxfile host="app.diagrams.net" agent="Mozilla/5.0 (Windows NT 10.0; Win64; x64) AppleWebKit/537.36 (KHTML, like Gecko) Chrome/132.0.0.0 YaBrowser/25.2.0.0 Safari/537.36" version="25.0.3">
  <diagram name="Страница — 1" id="JcgMkWdxOl0MSvAXrrk2">
    <mxGraphModel grid="1" page="1" gridSize="10" guides="1" tooltips="1" connect="1" arrows="1" fold="1" pageScale="1" pageWidth="827" pageHeight="1169" math="0" shadow="0">
      <root>
        <mxCell id="0" />
        <mxCell id="1" parent="0" />
        <mxCell id="xr0o5eQ3bMzEX39qYyPb-2" value="Клиент&amp;nbsp;" style="shape=umlActor;verticalLabelPosition=bottom;verticalAlign=top;html=1;outlineConnect=0;" vertex="1" parent="1">
          <mxGeometry x="80" y="340" width="30" height="60" as="geometry" />
        </mxCell>
        <mxCell id="xr0o5eQ3bMzEX39qYyPb-5" value="Администратор" style="shape=umlActor;verticalLabelPosition=bottom;verticalAlign=top;html=1;outlineConnect=0;" vertex="1" parent="1">
          <mxGeometry x="540" y="380" width="30" height="60" as="geometry" />
        </mxCell>
        <mxCell id="xr0o5eQ3bMzEX39qYyPb-6" value="ПК клуб" style="shape=umlActor;verticalLabelPosition=bottom;verticalAlign=top;html=1;outlineConnect=0;" vertex="1" parent="1">
          <mxGeometry x="540" y="160" width="30" height="60" as="geometry" />
        </mxCell>
        <mxCell id="xr0o5eQ3bMzEX39qYyPb-7" value="Оформление заказа" style="ellipse;whiteSpace=wrap;html=1;" vertex="1" parent="1">
          <mxGeometry x="270" y="380" width="130" height="40" as="geometry" />
        </mxCell>
        <mxCell id="xr0o5eQ3bMzEX39qYyPb-11" value="Приём заказа" style="ellipse;whiteSpace=wrap;html=1;" vertex="1" parent="1">
          <mxGeometry x="640" y="350" width="130" height="40" as="geometry" />
        </mxCell>
        <mxCell id="xr0o5eQ3bMzEX39qYyPb-12" value="" style="endArrow=none;html=1;rounded=0;exitX=0;exitY=0.5;exitDx=0;exitDy=0;entryX=0.5;entryY=0.5;entryDx=0;entryDy=0;entryPerimeter=0;" edge="1" parent="1" source="xr0o5eQ3bMzEX39qYyPb-11" target="xr0o5eQ3bMzEX39qYyPb-5">
          <mxGeometry width="50" height="50" relative="1" as="geometry">
            <mxPoint x="360" y="330" as="sourcePoint" />
            <mxPoint x="410" y="280" as="targetPoint" />
          </mxGeometry>
        </mxCell>
        <mxCell id="xr0o5eQ3bMzEX39qYyPb-14" value="Отчёт о статусе заказа" style="ellipse;whiteSpace=wrap;html=1;" vertex="1" parent="1">
          <mxGeometry x="265" y="240" width="140" height="40" as="geometry" />
        </mxCell>
        <mxCell id="xr0o5eQ3bMzEX39qYyPb-15" value="" style="endArrow=none;html=1;rounded=0;entryX=0.5;entryY=0.5;entryDx=0;entryDy=0;entryPerimeter=0;exitX=1;exitY=0.5;exitDx=0;exitDy=0;" edge="1" parent="1" source="xr0o5eQ3bMzEX39qYyPb-14" target="xr0o5eQ3bMzEX39qYyPb-6">
          <mxGeometry width="50" height="50" relative="1" as="geometry">
            <mxPoint x="360" y="330" as="sourcePoint" />
            <mxPoint x="410" y="280" as="targetPoint" />
          </mxGeometry>
        </mxCell>
        <mxCell id="xr0o5eQ3bMzEX39qYyPb-16" value="" style="endArrow=none;html=1;rounded=0;entryX=0;entryY=0.5;entryDx=0;entryDy=0;exitX=0.5;exitY=0.5;exitDx=0;exitDy=0;exitPerimeter=0;" edge="1" parent="1" source="xr0o5eQ3bMzEX39qYyPb-2" target="xr0o5eQ3bMzEX39qYyPb-14">
          <mxGeometry width="50" height="50" relative="1" as="geometry">
            <mxPoint x="360" y="330" as="sourcePoint" />
            <mxPoint x="410" y="280" as="targetPoint" />
          </mxGeometry>
        </mxCell>
        <mxCell id="xr0o5eQ3bMzEX39qYyPb-17" value="Проведение оплаты" style="ellipse;whiteSpace=wrap;html=1;" vertex="1" parent="1">
          <mxGeometry x="270" y="310" width="130" height="40" as="geometry" />
        </mxCell>
        <mxCell id="xr0o5eQ3bMzEX39qYyPb-18" value="" style="endArrow=none;html=1;rounded=0;exitX=0;exitY=0.5;exitDx=0;exitDy=0;entryX=0.5;entryY=0.5;entryDx=0;entryDy=0;entryPerimeter=0;" edge="1" parent="1" source="xr0o5eQ3bMzEX39qYyPb-17" target="xr0o5eQ3bMzEX39qYyPb-2">
          <mxGeometry width="50" height="50" relative="1" as="geometry">
            <mxPoint x="360" y="330" as="sourcePoint" />
            <mxPoint x="410" y="280" as="targetPoint" />
          </mxGeometry>
        </mxCell>
        <mxCell id="xr0o5eQ3bMzEX39qYyPb-19" value="" style="endArrow=none;html=1;rounded=0;exitX=1;exitY=0.5;exitDx=0;exitDy=0;entryX=0.5;entryY=0.5;entryDx=0;entryDy=0;entryPerimeter=0;" edge="1" parent="1" source="xr0o5eQ3bMzEX39qYyPb-17" target="xr0o5eQ3bMzEX39qYyPb-5">
          <mxGeometry width="50" height="50" relative="1" as="geometry">
            <mxPoint x="360" y="330" as="sourcePoint" />
            <mxPoint x="410" y="280" as="targetPoint" />
          </mxGeometry>
        </mxCell>
        <mxCell id="xr0o5eQ3bMzEX39qYyPb-20" value="" style="endArrow=classic;html=1;rounded=0;exitX=0.5;exitY=0.5;exitDx=0;exitDy=0;exitPerimeter=0;entryX=0;entryY=0.5;entryDx=0;entryDy=0;" edge="1" parent="1" source="xr0o5eQ3bMzEX39qYyPb-5" target="xr0o5eQ3bMzEX39qYyPb-21">
          <mxGeometry width="50" height="50" relative="1" as="geometry">
            <mxPoint x="610" y="470" as="sourcePoint" />
            <mxPoint x="620" y="410" as="targetPoint" />
          </mxGeometry>
        </mxCell>
        <mxCell id="xr0o5eQ3bMzEX39qYyPb-21" value="Проверка наличия свободных компьютеров" style="ellipse;whiteSpace=wrap;html=1;" vertex="1" parent="1">
          <mxGeometry x="625" y="410" width="160" height="40" as="geometry" />
        </mxCell>
        <mxCell id="xr0o5eQ3bMzEX39qYyPb-22" value="" style="endArrow=classic;html=1;rounded=0;exitX=0.5;exitY=0.5;exitDx=0;exitDy=0;exitPerimeter=0;entryX=0;entryY=0.5;entryDx=0;entryDy=0;" edge="1" parent="1" source="xr0o5eQ3bMzEX39qYyPb-6" target="xr0o5eQ3bMzEX39qYyPb-24">
          <mxGeometry width="50" height="50" relative="1" as="geometry">
            <mxPoint x="570" y="190" as="sourcePoint" />
            <mxPoint x="640" y="160" as="targetPoint" />
          </mxGeometry>
        </mxCell>
        <mxCell id="xr0o5eQ3bMzEX39qYyPb-23" value="Передача информации о заказе&amp;nbsp;" style="ellipse;whiteSpace=wrap;html=1;" vertex="1" parent="1">
          <mxGeometry x="550" y="280" width="150" height="40" as="geometry" />
        </mxCell>
        <mxCell id="xr0o5eQ3bMzEX39qYyPb-24" value="Синхронизация тарифа и компьютера" style="ellipse;whiteSpace=wrap;html=1;" vertex="1" parent="1">
          <mxGeometry x="625" y="170" width="165" height="40" as="geometry" />
        </mxCell>
        <mxCell id="xr0o5eQ3bMzEX39qYyPb-25" value="" style="endArrow=none;html=1;rounded=0;exitX=1;exitY=0.5;exitDx=0;exitDy=0;entryX=0.5;entryY=0.5;entryDx=0;entryDy=0;entryPerimeter=0;" edge="1" parent="1" source="xr0o5eQ3bMzEX39qYyPb-7" target="xr0o5eQ3bMzEX39qYyPb-5">
          <mxGeometry width="50" height="50" relative="1" as="geometry">
            <mxPoint x="360" y="330" as="sourcePoint" />
            <mxPoint x="410" y="280" as="targetPoint" />
          </mxGeometry>
        </mxCell>
        <mxCell id="xr0o5eQ3bMzEX39qYyPb-26" value="" style="endArrow=none;html=1;rounded=0;exitX=0;exitY=0.5;exitDx=0;exitDy=0;entryX=0.5;entryY=0.5;entryDx=0;entryDy=0;entryPerimeter=0;" edge="1" parent="1" source="xr0o5eQ3bMzEX39qYyPb-7" target="xr0o5eQ3bMzEX39qYyPb-2">
          <mxGeometry width="50" height="50" relative="1" as="geometry">
            <mxPoint x="360" y="330" as="sourcePoint" />
            <mxPoint x="410" y="280" as="targetPoint" />
          </mxGeometry>
        </mxCell>
        <mxCell id="xr0o5eQ3bMzEX39qYyPb-27" value="" style="endArrow=classic;html=1;rounded=0;exitX=0.5;exitY=0;exitDx=0;exitDy=0;exitPerimeter=0;entryX=0.5;entryY=1;entryDx=0;entryDy=0;" edge="1" parent="1" source="xr0o5eQ3bMzEX39qYyPb-5" target="xr0o5eQ3bMzEX39qYyPb-23">
          <mxGeometry width="50" height="50" relative="1" as="geometry">
            <mxPoint x="360" y="330" as="sourcePoint" />
            <mxPoint x="410" y="280" as="targetPoint" />
          </mxGeometry>
        </mxCell>
        <mxCell id="xr0o5eQ3bMzEX39qYyPb-28" value="" style="endArrow=classic;html=1;rounded=0;exitX=0.5;exitY=0;exitDx=0;exitDy=0;" edge="1" parent="1" source="xr0o5eQ3bMzEX39qYyPb-23" target="xr0o5eQ3bMzEX39qYyPb-6">
          <mxGeometry width="50" height="50" relative="1" as="geometry">
            <mxPoint x="360" y="330" as="sourcePoint" />
            <mxPoint x="410" y="280" as="targetPoint" />
          </mxGeometry>
        </mxCell>
        <mxCell id="xr0o5eQ3bMzEX39qYyPb-29" value="" style="endArrow=classic;html=1;rounded=0;exitX=0.5;exitY=1;exitDx=0;exitDy=0;dashed=1;entryX=0.5;entryY=0;entryDx=0;entryDy=0;" edge="1" parent="1" source="xr0o5eQ3bMzEX39qYyPb-7" target="xr0o5eQ3bMzEX39qYyPb-30">
          <mxGeometry width="50" height="50" relative="1" as="geometry">
            <mxPoint x="360" y="330" as="sourcePoint" />
            <mxPoint x="335" y="480" as="targetPoint" />
          </mxGeometry>
        </mxCell>
        <mxCell id="xr0o5eQ3bMzEX39qYyPb-30" value="Выбор тарифа" style="ellipse;whiteSpace=wrap;html=1;" vertex="1" parent="1">
          <mxGeometry x="270" y="460" width="130" height="40" as="geometry" />
        </mxCell>
        <mxCell id="xr0o5eQ3bMzEX39qYyPb-31" value="&quot;include&quot;" style="text;html=1;align=center;verticalAlign=middle;whiteSpace=wrap;rounded=0;" vertex="1" parent="1">
          <mxGeometry x="270" y="430" width="60" height="20" as="geometry" />
        </mxCell>
        <mxCell id="xr0o5eQ3bMzEX39qYyPb-32" value="Предоставление игрового места" style="ellipse;whiteSpace=wrap;html=1;" vertex="1" parent="1">
          <mxGeometry x="270" y="530" width="130" height="40" as="geometry" />
        </mxCell>
        <mxCell id="xr0o5eQ3bMzEX39qYyPb-33" value="" style="endArrow=none;html=1;rounded=0;entryX=0.5;entryY=0.5;entryDx=0;entryDy=0;entryPerimeter=0;exitX=1;exitY=0.5;exitDx=0;exitDy=0;" edge="1" parent="1" source="xr0o5eQ3bMzEX39qYyPb-32" target="xr0o5eQ3bMzEX39qYyPb-5">
          <mxGeometry width="50" height="50" relative="1" as="geometry">
            <mxPoint x="360" y="460" as="sourcePoint" />
            <mxPoint x="410" y="410" as="targetPoint" />
          </mxGeometry>
        </mxCell>
        <mxCell id="xr0o5eQ3bMzEX39qYyPb-34" value="" style="endArrow=none;html=1;rounded=0;exitX=0;exitY=0.5;exitDx=0;exitDy=0;entryX=0.5;entryY=0.5;entryDx=0;entryDy=0;entryPerimeter=0;" edge="1" parent="1" source="xr0o5eQ3bMzEX39qYyPb-32" target="xr0o5eQ3bMzEX39qYyPb-2">
          <mxGeometry width="50" height="50" relative="1" as="geometry">
            <mxPoint x="360" y="460" as="sourcePoint" />
            <mxPoint x="410" y="410" as="targetPoint" />
          </mxGeometry>
        </mxCell>
        <mxCell id="xr0o5eQ3bMzEX39qYyPb-44" value="Клиент&amp;nbsp;" style="shape=umlActor;verticalLabelPosition=bottom;verticalAlign=top;html=1;outlineConnect=0;" vertex="1" parent="1">
          <mxGeometry x="1220" y="90" width="30" height="60" as="geometry" />
        </mxCell>
        <mxCell id="xr0o5eQ3bMzEX39qYyPb-45" value="Администартор" style="shape=umlActor;verticalLabelPosition=bottom;verticalAlign=top;html=1;outlineConnect=0;" vertex="1" parent="1">
          <mxGeometry x="1220" y="350" width="30" height="60" as="geometry" />
        </mxCell>
        <mxCell id="xr0o5eQ3bMzEX39qYyPb-46" value="Интерфейс администратора" style="shape=umlBoundary;whiteSpace=wrap;html=1;" vertex="1" parent="1">
          <mxGeometry x="1430" y="360" width="130" height="80" as="geometry" />
        </mxCell>
        <mxCell id="xr0o5eQ3bMzEX39qYyPb-47" value="Интерфейс клиента" style="shape=umlBoundary;whiteSpace=wrap;html=1;" vertex="1" parent="1">
          <mxGeometry x="1450" y="40" width="100" height="80" as="geometry" />
        </mxCell>
        <mxCell id="xr0o5eQ3bMzEX39qYyPb-48" value="Система управления ПК клубом" style="ellipse;shape=umlControl;whiteSpace=wrap;html=1;" vertex="1" parent="1">
          <mxGeometry x="1600" y="190" width="70" height="80" as="geometry" />
        </mxCell>
        <mxCell id="xr0o5eQ3bMzEX39qYyPb-49" value="Компьютер&amp;nbsp;" style="ellipse;shape=umlEntity;whiteSpace=wrap;html=1;" vertex="1" parent="1">
          <mxGeometry x="1710" y="310" width="80" height="80" as="geometry" />
        </mxCell>
        <mxCell id="xr0o5eQ3bMzEX39qYyPb-50" value="Заказ" style="ellipse;shape=umlEntity;whiteSpace=wrap;html=1;" vertex="1" parent="1">
          <mxGeometry x="1727.5" y="70" width="80" height="80" as="geometry" />
        </mxCell>
        <mxCell id="xr0o5eQ3bMzEX39qYyPb-53" value="" style="endArrow=classic;html=1;rounded=0;exitX=1;exitY=0.3333333333333333;exitDx=0;exitDy=0;exitPerimeter=0;entryX=-0.028;entryY=0.508;entryDx=0;entryDy=0;entryPerimeter=0;" edge="1" parent="1" source="xr0o5eQ3bMzEX39qYyPb-44" target="xr0o5eQ3bMzEX39qYyPb-47">
          <mxGeometry width="50" height="50" relative="1" as="geometry">
            <mxPoint x="1270" y="135" as="sourcePoint" />
            <mxPoint x="1320" y="85" as="targetPoint" />
          </mxGeometry>
        </mxCell>
        <mxCell id="xr0o5eQ3bMzEX39qYyPb-54" value="" style="endArrow=classic;html=1;rounded=0;exitX=1;exitY=0.3333333333333333;exitDx=0;exitDy=0;exitPerimeter=0;entryX=-0.015;entryY=0.508;entryDx=0;entryDy=0;entryPerimeter=0;" edge="1" parent="1" source="xr0o5eQ3bMzEX39qYyPb-45" target="xr0o5eQ3bMzEX39qYyPb-46">
          <mxGeometry width="50" height="50" relative="1" as="geometry">
            <mxPoint x="1490" y="270" as="sourcePoint" />
            <mxPoint x="1540" y="220" as="targetPoint" />
          </mxGeometry>
        </mxCell>
        <mxCell id="xr0o5eQ3bMzEX39qYyPb-55" value="" style="endArrow=classic;html=1;rounded=0;exitX=1.036;exitY=0.588;exitDx=0;exitDy=0;exitPerimeter=0;entryX=0.109;entryY=0.283;entryDx=0;entryDy=0;entryPerimeter=0;" edge="1" parent="1" source="xr0o5eQ3bMzEX39qYyPb-47" target="xr0o5eQ3bMzEX39qYyPb-48">
          <mxGeometry width="50" height="50" relative="1" as="geometry">
            <mxPoint x="1430" y="270" as="sourcePoint" />
            <mxPoint x="1480" y="220" as="targetPoint" />
          </mxGeometry>
        </mxCell>
        <mxCell id="xr0o5eQ3bMzEX39qYyPb-56" value="" style="endArrow=classic;html=1;rounded=0;exitX=0.994;exitY=0.508;exitDx=0;exitDy=0;exitPerimeter=0;entryX=0.097;entryY=0.873;entryDx=0;entryDy=0;entryPerimeter=0;" edge="1" parent="1" source="xr0o5eQ3bMzEX39qYyPb-46" target="xr0o5eQ3bMzEX39qYyPb-48">
          <mxGeometry width="50" height="50" relative="1" as="geometry">
            <mxPoint x="1430" y="270" as="sourcePoint" />
            <mxPoint x="1480" y="220" as="targetPoint" />
          </mxGeometry>
        </mxCell>
        <mxCell id="xr0o5eQ3bMzEX39qYyPb-57" value="" style="endArrow=classic;html=1;rounded=0;exitX=0.025;exitY=0.818;exitDx=0;exitDy=0;exitPerimeter=0;entryX=0.817;entryY=0.253;entryDx=0;entryDy=0;entryPerimeter=0;dashed=1;" edge="1" parent="1" source="xr0o5eQ3bMzEX39qYyPb-50" target="xr0o5eQ3bMzEX39qYyPb-48">
          <mxGeometry width="50" height="50" relative="1" as="geometry">
            <mxPoint x="1454" y="97" as="sourcePoint" />
            <mxPoint x="1618" y="223" as="targetPoint" />
          </mxGeometry>
        </mxCell>
        <mxCell id="xr0o5eQ3bMzEX39qYyPb-59" value="" style="endArrow=classic;html=1;rounded=0;exitX=0.005;exitY=0.368;exitDx=0;exitDy=0;exitPerimeter=0;entryX=0.909;entryY=0.833;entryDx=0;entryDy=0;entryPerimeter=0;dashed=1;" edge="1" parent="1" source="xr0o5eQ3bMzEX39qYyPb-49" target="xr0o5eQ3bMzEX39qYyPb-48">
          <mxGeometry width="50" height="50" relative="1" as="geometry">
            <mxPoint x="1792" y="95" as="sourcePoint" />
            <mxPoint x="1667" y="220" as="targetPoint" />
          </mxGeometry>
        </mxCell>
        <mxCell id="xr0o5eQ3bMzEX39qYyPb-60" value="&lt;div&gt;&lt;span style=&quot;&quot;&gt;+ selectTariff(tariff): void&lt;/span&gt;&lt;div style=&quot;&quot;&gt;+ payForOrder(order): void&lt;/div&gt;&lt;div style=&quot;&quot;&gt;+ makeAnOrder(order) void&lt;/div&gt;&lt;/div&gt;" style="html=1;whiteSpace=wrap;align=left;" vertex="1" parent="1">
          <mxGeometry x="1410" y="135" width="150" height="65" as="geometry" />
        </mxCell>
        <mxCell id="xr0o5eQ3bMzEX39qYyPb-61" value="+ takeOrder(order): void&lt;div&gt;+ registrateLoyaltyProgram(loyaltyProgram ): void&lt;/div&gt;&lt;div&gt;+ provideGamingSpot(tarrif, computers): void&lt;/div&gt;" style="html=1;whiteSpace=wrap;align=left;" vertex="1" parent="1">
          <mxGeometry x="1385" y="460" width="275" height="70" as="geometry" />
        </mxCell>
        <mxCell id="xr0o5eQ3bMzEX39qYyPb-62" value="Order ID: string&amp;nbsp;&lt;div&gt;Payment Type: string&amp;nbsp;&lt;/div&gt;&lt;div&gt;Order Amount: float&amp;nbsp;&lt;/div&gt;&lt;div&gt;Tariff: list &amp;lt;time&amp;gt;&lt;/div&gt;" style="html=1;whiteSpace=wrap;align=left;" vertex="1" parent="1">
          <mxGeometry x="1710" y="170" width="145" height="70" as="geometry" />
        </mxCell>
        <mxCell id="xr0o5eQ3bMzEX39qYyPb-63" value="Computer ID: string&amp;nbsp;&lt;div&gt;Installed Games: string&lt;br&gt;&lt;/div&gt;&lt;div&gt;Computers Setup: list &amp;lt;Components&amp;gt;&lt;/div&gt;" style="html=1;whiteSpace=wrap;align=left;" vertex="1" parent="1">
          <mxGeometry x="1680" y="410" width="205" height="60" as="geometry" />
        </mxCell>
        <mxCell id="xr0o5eQ3bMzEX39qYyPb-64" value="Client" style="swimlane;fontStyle=1;align=center;verticalAlign=top;childLayout=stackLayout;horizontal=1;startSize=26;horizontalStack=0;resizeParent=1;resizeParentMax=0;resizeLast=0;collapsible=1;marginBottom=0;whiteSpace=wrap;html=1;" vertex="1" parent="1">
          <mxGeometry x="1155" y="180" width="160" height="150" as="geometry" />
        </mxCell>
        <mxCell id="xr0o5eQ3bMzEX39qYyPb-65" value="- name: string&amp;nbsp;&lt;div&gt;- phoneNumber: string&lt;/div&gt;&lt;div&gt;- email: string&lt;/div&gt;" style="text;strokeColor=none;fillColor=none;align=left;verticalAlign=top;spacingLeft=4;spacingRight=4;overflow=hidden;rotatable=0;points=[[0,0.5],[1,0.5]];portConstraint=eastwest;whiteSpace=wrap;html=1;" vertex="1" parent="xr0o5eQ3bMzEX39qYyPb-64">
          <mxGeometry y="26" width="160" height="64" as="geometry" />
        </mxCell>
        <mxCell id="xr0o5eQ3bMzEX39qYyPb-66" value="" style="line;strokeWidth=1;fillColor=none;align=left;verticalAlign=middle;spacingTop=-1;spacingLeft=3;spacingRight=3;rotatable=0;labelPosition=right;points=[];portConstraint=eastwest;strokeColor=inherit;" vertex="1" parent="xr0o5eQ3bMzEX39qYyPb-64">
          <mxGeometry y="90" width="160" height="8" as="geometry" />
        </mxCell>
        <mxCell id="xr0o5eQ3bMzEX39qYyPb-67" value="+ selectTariff(tariff): void&lt;div&gt;+ payForOrder(order): void&lt;/div&gt;&lt;div&gt;+ makeAnOrder(order) void&lt;/div&gt;" style="text;strokeColor=none;fillColor=none;align=left;verticalAlign=top;spacingLeft=4;spacingRight=4;overflow=hidden;rotatable=0;points=[[0,0.5],[1,0.5]];portConstraint=eastwest;whiteSpace=wrap;html=1;" vertex="1" parent="xr0o5eQ3bMzEX39qYyPb-64">
          <mxGeometry y="98" width="160" height="52" as="geometry" />
        </mxCell>
        <mxCell id="xr0o5eQ3bMzEX39qYyPb-68" value="Classname" style="swimlane;fontStyle=1;align=center;verticalAlign=top;childLayout=stackLayout;horizontal=1;startSize=26;horizontalStack=0;resizeParent=1;resizeParentMax=0;resizeLast=0;collapsible=1;marginBottom=0;whiteSpace=wrap;html=1;" vertex="1" parent="1">
          <mxGeometry x="970" y="450" width="400" height="150" as="geometry" />
        </mxCell>
        <mxCell id="xr0o5eQ3bMzEX39qYyPb-69" value="- name: string&amp;nbsp;&lt;div&gt;- workShedule: string&amp;nbsp;&lt;/div&gt;&lt;div&gt;- computers: string&lt;/div&gt;" style="text;strokeColor=none;fillColor=none;align=left;verticalAlign=top;spacingLeft=4;spacingRight=4;overflow=hidden;rotatable=0;points=[[0,0.5],[1,0.5]];portConstraint=eastwest;whiteSpace=wrap;html=1;" vertex="1" parent="xr0o5eQ3bMzEX39qYyPb-68">
          <mxGeometry y="26" width="400" height="54" as="geometry" />
        </mxCell>
        <mxCell id="xr0o5eQ3bMzEX39qYyPb-70" value="" style="line;strokeWidth=1;fillColor=none;align=left;verticalAlign=middle;spacingTop=-1;spacingLeft=3;spacingRight=3;rotatable=0;labelPosition=right;points=[];portConstraint=eastwest;strokeColor=inherit;" vertex="1" parent="xr0o5eQ3bMzEX39qYyPb-68">
          <mxGeometry y="80" width="400" height="8" as="geometry" />
        </mxCell>
        <mxCell id="xr0o5eQ3bMzEX39qYyPb-71" value="+ registerNewClient(client,&amp;nbsp;loyaltyProgram, email, phoneNumber): void&lt;div&gt;+ completeOrder(computers, client): void&lt;/div&gt;&lt;div&gt;+ makeShedule(workShedule, administrator): void&lt;/div&gt;" style="text;strokeColor=none;fillColor=none;align=left;verticalAlign=top;spacingLeft=4;spacingRight=4;overflow=hidden;rotatable=0;points=[[0,0.5],[1,0.5]];portConstraint=eastwest;whiteSpace=wrap;html=1;" vertex="1" parent="xr0o5eQ3bMzEX39qYyPb-68">
          <mxGeometry y="88" width="400" height="62" as="geometry" />
        </mxCell>
        <mxCell id="eZ6hBYkW27tw9v58mCa--1" value="Клиент" style="shape=umlActor;verticalLabelPosition=bottom;verticalAlign=top;html=1;outlineConnect=0;" vertex="1" parent="1">
          <mxGeometry x="2020" y="70" width="30" height="60" as="geometry" />
        </mxCell>
        <mxCell id="eZ6hBYkW27tw9v58mCa--2" value="&lt;span style=&quot;color: rgb(0, 0, 0); font-family: Helvetica; font-size: 12px; font-style: normal; font-variant-ligatures: normal; font-variant-caps: normal; font-weight: 400; letter-spacing: normal; orphans: 2; text-align: center; text-indent: 0px; text-transform: none; widows: 2; word-spacing: 0px; -webkit-text-stroke-width: 0px; white-space: normal; background-color: rgb(251, 251, 251); text-decoration-thickness: initial; text-decoration-style: initial; text-decoration-color: initial; display: inline !important; float: none;&quot;&gt;&lt;br&gt;&lt;/span&gt;&lt;div&gt;&lt;span style=&quot;color: rgb(0, 0, 0); font-family: Helvetica; font-size: 12px; font-style: normal; font-variant-ligatures: normal; font-variant-caps: normal; font-weight: 400; letter-spacing: normal; orphans: 2; text-align: center; text-indent: 0px; text-transform: none; widows: 2; word-spacing: 0px; -webkit-text-stroke-width: 0px; white-space: normal; background-color: rgb(251, 251, 251); text-decoration-thickness: initial; text-decoration-style: initial; text-decoration-color: initial; display: inline !important; float: none;&quot;&gt;Администратор&lt;/span&gt;&lt;br&gt;&lt;br&gt;&lt;/div&gt;" style="rounded=0;whiteSpace=wrap;html=1;" vertex="1" parent="1">
          <mxGeometry x="2190" y="85" width="120" height="30" as="geometry" />
        </mxCell>
        <mxCell id="eZ6hBYkW27tw9v58mCa--3" value="&lt;br&gt;&lt;div&gt;&lt;span style=&quot;color: rgb(0, 0, 0); font-family: Helvetica; font-size: 12px; font-style: normal; font-variant-ligatures: normal; font-variant-caps: normal; font-weight: 400; letter-spacing: normal; orphans: 2; text-align: center; text-indent: 0px; text-transform: none; widows: 2; word-spacing: 0px; -webkit-text-stroke-width: 0px; white-space: normal; background-color: rgb(251, 251, 251); text-decoration-thickness: initial; text-decoration-style: initial; text-decoration-color: initial; display: inline !important; float: none;&quot;&gt;Система синхронизации тарифа&amp;nbsp;&lt;/span&gt;&lt;br&gt;&lt;br&gt;&lt;/div&gt;" style="rounded=0;whiteSpace=wrap;html=1;" vertex="1" parent="1">
          <mxGeometry x="2380" y="75" width="120" height="50" as="geometry" />
        </mxCell>
        <mxCell id="eZ6hBYkW27tw9v58mCa--4" value="Система составления счёта&amp;nbsp;" style="rounded=0;whiteSpace=wrap;html=1;" vertex="1" parent="1">
          <mxGeometry x="2570" y="85" width="120" height="40" as="geometry" />
        </mxCell>
        <mxCell id="eZ6hBYkW27tw9v58mCa--5" value="" style="html=1;points=[[0,0,0,0,5],[0,1,0,0,-5],[1,0,0,0,5],[1,1,0,0,-5]];perimeter=orthogonalPerimeter;outlineConnect=0;targetShapes=umlLifeline;portConstraint=eastwest;newEdgeStyle={&quot;curved&quot;:0,&quot;rounded&quot;:0};" vertex="1" parent="1">
          <mxGeometry x="2030" y="190" width="10" height="390" as="geometry" />
        </mxCell>
        <mxCell id="eZ6hBYkW27tw9v58mCa--7" value="" style="endArrow=none;dashed=1;html=1;rounded=0;" edge="1" parent="1" source="eZ6hBYkW27tw9v58mCa--5" target="eZ6hBYkW27tw9v58mCa--1">
          <mxGeometry width="50" height="50" relative="1" as="geometry">
            <mxPoint x="2187" y="340" as="sourcePoint" />
            <mxPoint x="2237" y="290" as="targetPoint" />
          </mxGeometry>
        </mxCell>
        <mxCell id="eZ6hBYkW27tw9v58mCa--8" value="" style="html=1;points=[[0,0,0,0,5],[0,1,0,0,-5],[1,0,0,0,5],[1,1,0,0,-5]];perimeter=orthogonalPerimeter;outlineConnect=0;targetShapes=umlLifeline;portConstraint=eastwest;newEdgeStyle={&quot;curved&quot;:0,&quot;rounded&quot;:0};" vertex="1" parent="1">
          <mxGeometry x="2245" y="190" width="10" height="390" as="geometry" />
        </mxCell>
        <mxCell id="eZ6hBYkW27tw9v58mCa--9" value="" style="endArrow=none;dashed=1;html=1;rounded=0;entryX=0.5;entryY=1;entryDx=0;entryDy=0;" edge="1" parent="1" source="eZ6hBYkW27tw9v58mCa--8" target="eZ6hBYkW27tw9v58mCa--2">
          <mxGeometry width="50" height="50" relative="1" as="geometry">
            <mxPoint x="2220" y="340" as="sourcePoint" />
            <mxPoint x="2270" y="290" as="targetPoint" />
          </mxGeometry>
        </mxCell>
        <mxCell id="eZ6hBYkW27tw9v58mCa--10" value="" style="endArrow=classic;html=1;rounded=0;" edge="1" parent="1" source="eZ6hBYkW27tw9v58mCa--5">
          <mxGeometry width="50" height="50" relative="1" as="geometry">
            <mxPoint x="2073" y="200" as="sourcePoint" />
            <mxPoint x="2245" y="200" as="targetPoint" />
          </mxGeometry>
        </mxCell>
        <mxCell id="eZ6hBYkW27tw9v58mCa--11" value="" style="endArrow=open;html=1;rounded=0;dashed=1;endFill=0;" edge="1" parent="1" source="eZ6hBYkW27tw9v58mCa--5">
          <mxGeometry width="50" height="50" relative="1" as="geometry">
            <mxPoint x="2073" y="229.5" as="sourcePoint" />
            <mxPoint x="2245" y="229.5" as="targetPoint" />
          </mxGeometry>
        </mxCell>
        <mxCell id="eZ6hBYkW27tw9v58mCa--12" value="2. Изменить или дополнить заказ" style="text;html=1;align=center;verticalAlign=middle;whiteSpace=wrap;rounded=0;" vertex="1" parent="1">
          <mxGeometry x="2040" y="210" width="190" height="20" as="geometry" />
        </mxCell>
        <mxCell id="eZ6hBYkW27tw9v58mCa--13" value="1. Оформление заказа" style="text;html=1;align=center;verticalAlign=middle;whiteSpace=wrap;rounded=0;" vertex="1" parent="1">
          <mxGeometry x="2060" y="180" width="170" height="20" as="geometry" />
        </mxCell>
        <mxCell id="eZ6hBYkW27tw9v58mCa--14" value="" style="html=1;points=[[0,0,0,0,5],[0,1,0,0,-5],[1,0,0,0,5],[1,1,0,0,-5]];perimeter=orthogonalPerimeter;outlineConnect=0;targetShapes=umlLifeline;portConstraint=eastwest;newEdgeStyle={&quot;curved&quot;:0,&quot;rounded&quot;:0};" vertex="1" parent="1">
          <mxGeometry x="2435" y="240" width="10" height="170" as="geometry" />
        </mxCell>
        <mxCell id="eZ6hBYkW27tw9v58mCa--15" value="" style="endArrow=none;dashed=1;html=1;rounded=0;entryX=0.5;entryY=1;entryDx=0;entryDy=0;" edge="1" parent="1" source="eZ6hBYkW27tw9v58mCa--14" target="eZ6hBYkW27tw9v58mCa--3">
          <mxGeometry width="50" height="50" relative="1" as="geometry">
            <mxPoint x="2350" y="340" as="sourcePoint" />
            <mxPoint x="2400" y="290" as="targetPoint" />
          </mxGeometry>
        </mxCell>
        <mxCell id="eZ6hBYkW27tw9v58mCa--16" value="" style="endArrow=classic;html=1;rounded=0;" edge="1" parent="1">
          <mxGeometry width="50" height="50" relative="1" as="geometry">
            <mxPoint x="2255" y="244.51999999999998" as="sourcePoint" />
            <mxPoint x="2435" y="244.51999999999998" as="targetPoint" />
          </mxGeometry>
        </mxCell>
        <mxCell id="eZ6hBYkW27tw9v58mCa--18" value="3. Информация о заказе" style="text;html=1;align=center;verticalAlign=middle;whiteSpace=wrap;rounded=0;" vertex="1" parent="1">
          <mxGeometry x="2265" y="225" width="170" height="10" as="geometry" />
        </mxCell>
        <mxCell id="eZ6hBYkW27tw9v58mCa--19" value="" style="curved=1;endArrow=classic;html=1;rounded=0;" edge="1" parent="1">
          <mxGeometry width="50" height="50" relative="1" as="geometry">
            <mxPoint x="2445" y="257" as="sourcePoint" />
            <mxPoint x="2445" y="383" as="targetPoint" />
            <Array as="points">
              <mxPoint x="2580" y="260" />
              <mxPoint x="2580" y="390" />
            </Array>
          </mxGeometry>
        </mxCell>
        <mxCell id="eZ6hBYkW27tw9v58mCa--21" value="&lt;font style=&quot;font-size: 9px;&quot;&gt;4. Синхронизация тарифа и компьютера&amp;nbsp;&lt;/font&gt;" style="text;html=1;align=center;verticalAlign=middle;whiteSpace=wrap;rounded=0;" vertex="1" parent="1">
          <mxGeometry x="2470" y="230" width="130" height="30" as="geometry" />
        </mxCell>
        <mxCell id="eZ6hBYkW27tw9v58mCa--22" value="" style="curved=1;endArrow=classic;html=1;rounded=0;" edge="1" parent="1">
          <mxGeometry width="50" height="50" relative="1" as="geometry">
            <mxPoint x="2446.5" y="309" as="sourcePoint" />
            <mxPoint x="2446" y="340" as="targetPoint" />
            <Array as="points">
              <mxPoint x="2481.5" y="306" />
              <mxPoint x="2481.5" y="340" />
            </Array>
          </mxGeometry>
        </mxCell>
        <mxCell id="eZ6hBYkW27tw9v58mCa--24" value="&lt;font style=&quot;font-size: 9px;&quot;&gt;5. Проверка наличия свободного компьютера&lt;/font&gt;" style="text;html=1;align=center;verticalAlign=middle;whiteSpace=wrap;rounded=0;" vertex="1" parent="1">
          <mxGeometry x="2460" y="285" width="100" height="30" as="geometry" />
        </mxCell>
        <mxCell id="eZ6hBYkW27tw9v58mCa--25" value="alt" style="shape=umlFrame;whiteSpace=wrap;html=1;pointerEvents=0;" vertex="1" parent="1">
          <mxGeometry x="1970" y="288" width="465" height="132" as="geometry" />
        </mxCell>
        <mxCell id="eZ6hBYkW27tw9v58mCa--26" value="" style="endArrow=classic;html=1;rounded=0;" edge="1" parent="1">
          <mxGeometry width="50" height="50" relative="1" as="geometry">
            <mxPoint x="2435" y="340" as="sourcePoint" />
            <mxPoint x="2255" y="340" as="targetPoint" />
          </mxGeometry>
        </mxCell>
        <mxCell id="eZ6hBYkW27tw9v58mCa--27" value="&lt;font style=&quot;font-size: 11px;&quot;&gt;6. Ответ о наличии свободных компьютеров&lt;/font&gt;" style="text;html=1;align=center;verticalAlign=middle;whiteSpace=wrap;rounded=0;" vertex="1" parent="1">
          <mxGeometry x="2280" y="315" width="130" height="20" as="geometry" />
        </mxCell>
        <mxCell id="eZ6hBYkW27tw9v58mCa--28" value="[False]" style="text;html=1;align=center;verticalAlign=middle;whiteSpace=wrap;rounded=0;" vertex="1" parent="1">
          <mxGeometry x="2040" y="290" width="60" height="20" as="geometry" />
        </mxCell>
        <mxCell id="eZ6hBYkW27tw9v58mCa--29" value="" style="endArrow=none;dashed=1;html=1;rounded=0;exitX=-0.004;exitY=0.671;exitDx=0;exitDy=0;exitPerimeter=0;" edge="1" parent="1">
          <mxGeometry width="50" height="50" relative="1" as="geometry">
            <mxPoint x="1969.07" y="360.00199999999995" as="sourcePoint" />
            <mxPoint x="2435.93" y="360.00199999999995" as="targetPoint" />
          </mxGeometry>
        </mxCell>
        <mxCell id="eZ6hBYkW27tw9v58mCa--30" value="" style="endArrow=classic;html=1;rounded=0;" edge="1" parent="1">
          <mxGeometry width="50" height="50" relative="1" as="geometry">
            <mxPoint x="2245" y="348.52" as="sourcePoint" />
            <mxPoint x="2040" y="348.52" as="targetPoint" />
          </mxGeometry>
        </mxCell>
        <mxCell id="eZ6hBYkW27tw9v58mCa--31" value="&lt;font style=&quot;font-size: 10px;&quot;&gt;7. Предоставление актуальной информации и предложение альтернатив&amp;nbsp;&lt;/font&gt;" style="text;html=1;align=center;verticalAlign=middle;whiteSpace=wrap;rounded=0;" vertex="1" parent="1">
          <mxGeometry x="2040" y="315" width="200" height="32.5" as="geometry" />
        </mxCell>
        <mxCell id="eZ6hBYkW27tw9v58mCa--32" value="[True]" style="text;html=1;align=center;verticalAlign=middle;whiteSpace=wrap;rounded=0;" vertex="1" parent="1">
          <mxGeometry x="2038" y="360" width="60" height="20" as="geometry" />
        </mxCell>
        <mxCell id="eZ6hBYkW27tw9v58mCa--33" value="" style="endArrow=classic;html=1;rounded=0;" edge="1" parent="1">
          <mxGeometry width="50" height="50" relative="1" as="geometry">
            <mxPoint x="2435" y="399.04999999999995" as="sourcePoint" />
            <mxPoint x="2255" y="399.04999999999995" as="targetPoint" />
          </mxGeometry>
        </mxCell>
        <mxCell id="eZ6hBYkW27tw9v58mCa--35" value="&lt;span style=&quot;font-size: 11px;&quot;&gt;8. Передача информации о готовом компьютере&amp;nbsp;&lt;/span&gt;" style="text;html=1;align=center;verticalAlign=middle;whiteSpace=wrap;rounded=0;" vertex="1" parent="1">
          <mxGeometry x="2280" y="369.04999999999995" width="140" height="30" as="geometry" />
        </mxCell>
        <mxCell id="eZ6hBYkW27tw9v58mCa--36" value="" style="endArrow=classic;html=1;rounded=0;" edge="1" parent="1">
          <mxGeometry width="50" height="50" relative="1" as="geometry">
            <mxPoint x="2245" y="409.05" as="sourcePoint" />
            <mxPoint x="2040" y="409.05" as="targetPoint" />
          </mxGeometry>
        </mxCell>
        <mxCell id="eZ6hBYkW27tw9v58mCa--37" value="&lt;span style=&quot;font-size: 11px;&quot;&gt;9. Предоставление игрового мета&amp;nbsp;&lt;/span&gt;" style="text;html=1;align=center;verticalAlign=middle;whiteSpace=wrap;rounded=0;" vertex="1" parent="1">
          <mxGeometry x="2075" y="380" width="140" height="30" as="geometry" />
        </mxCell>
        <mxCell id="eZ6hBYkW27tw9v58mCa--38" value="" style="endArrow=none;dashed=1;html=1;rounded=0;" edge="1" parent="1" source="eZ6hBYkW27tw9v58mCa--14">
          <mxGeometry width="50" height="50" relative="1" as="geometry">
            <mxPoint x="2200" y="340" as="sourcePoint" />
            <mxPoint x="2440" y="430" as="targetPoint" />
          </mxGeometry>
        </mxCell>
        <mxCell id="eZ6hBYkW27tw9v58mCa--39" value="" style="html=1;points=[[0,0,0,0,5],[0,1,0,0,-5],[1,0,0,0,5],[1,1,0,0,-5]];perimeter=orthogonalPerimeter;outlineConnect=0;targetShapes=umlLifeline;portConstraint=eastwest;newEdgeStyle={&quot;curved&quot;:0,&quot;rounded&quot;:0};" vertex="1" parent="1">
          <mxGeometry x="2625" y="455" width="10" height="80" as="geometry" />
        </mxCell>
        <mxCell id="eZ6hBYkW27tw9v58mCa--41" value="" style="endArrow=classic;html=1;rounded=0;" edge="1" parent="1">
          <mxGeometry width="50" height="50" relative="1" as="geometry">
            <mxPoint x="2255" y="459.9999999999999" as="sourcePoint" />
            <mxPoint x="2625" y="459.9999999999999" as="targetPoint" />
          </mxGeometry>
        </mxCell>
        <mxCell id="eZ6hBYkW27tw9v58mCa--42" value="" style="endArrow=none;dashed=1;html=1;rounded=0;exitX=0.5;exitY=1;exitDx=0;exitDy=0;" edge="1" parent="1" source="eZ6hBYkW27tw9v58mCa--4" target="eZ6hBYkW27tw9v58mCa--39">
          <mxGeometry width="50" height="50" relative="1" as="geometry">
            <mxPoint x="2200" y="340" as="sourcePoint" />
            <mxPoint x="2250" y="290" as="targetPoint" />
          </mxGeometry>
        </mxCell>
        <mxCell id="eZ6hBYkW27tw9v58mCa--43" value="10. Запрос о составлении счёта" style="text;html=1;align=center;verticalAlign=middle;whiteSpace=wrap;rounded=0;" vertex="1" parent="1">
          <mxGeometry x="2342.5" y="440" width="195" height="20" as="geometry" />
        </mxCell>
        <mxCell id="eZ6hBYkW27tw9v58mCa--44" value="" style="curved=1;endArrow=classic;html=1;rounded=0;" edge="1" parent="1">
          <mxGeometry width="50" height="50" relative="1" as="geometry">
            <mxPoint x="2635.5" y="473" as="sourcePoint" />
            <mxPoint x="2635" y="504" as="targetPoint" />
            <Array as="points">
              <mxPoint x="2670.5" y="470" />
              <mxPoint x="2670.5" y="504" />
            </Array>
          </mxGeometry>
        </mxCell>
        <mxCell id="eZ6hBYkW27tw9v58mCa--45" value="&lt;font style=&quot;font-size: 9px;&quot;&gt;11. Обработка данных о заказе&lt;/font&gt;" style="text;html=1;align=center;verticalAlign=middle;whiteSpace=wrap;rounded=0;" vertex="1" parent="1">
          <mxGeometry x="2640" y="440" width="90" height="30" as="geometry" />
        </mxCell>
        <mxCell id="eZ6hBYkW27tw9v58mCa--46" value="" style="endArrow=classic;html=1;rounded=0;" edge="1" parent="1">
          <mxGeometry width="50" height="50" relative="1" as="geometry">
            <mxPoint x="2625" y="520" as="sourcePoint" />
            <mxPoint x="2255" y="520" as="targetPoint" />
          </mxGeometry>
        </mxCell>
        <mxCell id="eZ6hBYkW27tw9v58mCa--47" value="12. Предоставление данных для оплаты" style="text;html=1;align=center;verticalAlign=middle;whiteSpace=wrap;rounded=0;" vertex="1" parent="1">
          <mxGeometry x="2326.25" y="500" width="227.5" height="20" as="geometry" />
        </mxCell>
        <mxCell id="eZ6hBYkW27tw9v58mCa--48" value="" style="endArrow=classic;html=1;rounded=0;" edge="1" parent="1">
          <mxGeometry width="50" height="50" relative="1" as="geometry">
            <mxPoint x="2245" y="535" as="sourcePoint" />
            <mxPoint x="2040" y="535" as="targetPoint" />
          </mxGeometry>
        </mxCell>
        <mxCell id="eZ6hBYkW27tw9v58mCa--49" value="13. Предоставление счёта" style="text;html=1;align=center;verticalAlign=middle;whiteSpace=wrap;rounded=0;" vertex="1" parent="1">
          <mxGeometry x="2055" y="515" width="170" height="20" as="geometry" />
        </mxCell>
        <mxCell id="eZ6hBYkW27tw9v58mCa--50" value="" style="endArrow=classic;html=1;rounded=0;" edge="1" parent="1">
          <mxGeometry width="50" height="50" relative="1" as="geometry">
            <mxPoint x="2040" y="570" as="sourcePoint" />
            <mxPoint x="2245" y="570" as="targetPoint" />
          </mxGeometry>
        </mxCell>
        <mxCell id="eZ6hBYkW27tw9v58mCa--51" value="14. Произведение оплаты" style="text;html=1;align=center;verticalAlign=middle;whiteSpace=wrap;rounded=0;" vertex="1" parent="1">
          <mxGeometry x="2062.5" y="550" width="155" height="20" as="geometry" />
        </mxCell>
        <mxCell id="eZ6hBYkW27tw9v58mCa--52" value="" style="endArrow=none;dashed=1;html=1;rounded=0;" edge="1" parent="1" target="eZ6hBYkW27tw9v58mCa--39">
          <mxGeometry width="50" height="50" relative="1" as="geometry">
            <mxPoint x="2630" y="570" as="sourcePoint" />
            <mxPoint x="2650" y="540" as="targetPoint" />
          </mxGeometry>
        </mxCell>
        <mxCell id="eZ6hBYkW27tw9v58mCa--53" value="" style="endArrow=none;dashed=1;html=1;rounded=0;" edge="1" parent="1" target="eZ6hBYkW27tw9v58mCa--8">
          <mxGeometry width="50" height="50" relative="1" as="geometry">
            <mxPoint x="2250" y="600" as="sourcePoint" />
            <mxPoint x="2305" y="600" as="targetPoint" />
          </mxGeometry>
        </mxCell>
        <mxCell id="eZ6hBYkW27tw9v58mCa--54" value="" style="endArrow=none;dashed=1;html=1;rounded=0;" edge="1" parent="1" source="eZ6hBYkW27tw9v58mCa--5">
          <mxGeometry width="50" height="50" relative="1" as="geometry">
            <mxPoint x="2400" y="450" as="sourcePoint" />
            <mxPoint x="2035" y="600" as="targetPoint" />
          </mxGeometry>
        </mxCell>
        <mxCell id="hWuVy-jcxDphh0jQvDJt-1" value="Клиент" style="shape=umlActor;verticalLabelPosition=bottom;verticalAlign=top;html=1;outlineConnect=0;" vertex="1" parent="1">
          <mxGeometry x="2950" y="80" width="30" height="60" as="geometry" />
        </mxCell>
        <mxCell id="hWuVy-jcxDphh0jQvDJt-2" value="&lt;span style=&quot;color: rgb(0, 0, 0); font-family: Helvetica; font-size: 12px; font-style: normal; font-variant-ligatures: normal; font-variant-caps: normal; font-weight: 400; letter-spacing: normal; orphans: 2; text-align: center; text-indent: 0px; text-transform: none; widows: 2; word-spacing: 0px; -webkit-text-stroke-width: 0px; white-space: normal; background-color: rgb(251, 251, 251); text-decoration-thickness: initial; text-decoration-style: initial; text-decoration-color: initial; display: inline !important; float: none;&quot;&gt;&lt;br&gt;&lt;/span&gt;&lt;div&gt;&lt;span style=&quot;color: rgb(0, 0, 0); font-family: Helvetica; font-size: 12px; font-style: normal; font-variant-ligatures: normal; font-variant-caps: normal; font-weight: 400; letter-spacing: normal; orphans: 2; text-align: center; text-indent: 0px; text-transform: none; widows: 2; word-spacing: 0px; -webkit-text-stroke-width: 0px; white-space: normal; background-color: rgb(251, 251, 251); text-decoration-thickness: initial; text-decoration-style: initial; text-decoration-color: initial; display: inline !important; float: none;&quot;&gt;Администратор&lt;/span&gt;&lt;br&gt;&lt;br&gt;&lt;/div&gt;" style="rounded=0;whiteSpace=wrap;html=1;" vertex="1" parent="1">
          <mxGeometry x="2905" y="375" width="120" height="30" as="geometry" />
        </mxCell>
        <mxCell id="hWuVy-jcxDphh0jQvDJt-3" value="&lt;br&gt;&lt;div&gt;&lt;span style=&quot;color: rgb(0, 0, 0); font-family: Helvetica; font-size: 12px; font-style: normal; font-variant-ligatures: normal; font-variant-caps: normal; font-weight: 400; letter-spacing: normal; orphans: 2; text-align: center; text-indent: 0px; text-transform: none; widows: 2; word-spacing: 0px; -webkit-text-stroke-width: 0px; white-space: normal; background-color: rgb(251, 251, 251); text-decoration-thickness: initial; text-decoration-style: initial; text-decoration-color: initial; display: inline !important; float: none;&quot;&gt;Система синхронизации тарифа&amp;nbsp;&lt;/span&gt;&lt;br&gt;&lt;br&gt;&lt;/div&gt;" style="rounded=0;whiteSpace=wrap;html=1;" vertex="1" parent="1">
          <mxGeometry x="3285" y="170" width="120" height="50" as="geometry" />
        </mxCell>
        <mxCell id="hWuVy-jcxDphh0jQvDJt-4" value="Система составления счёта&amp;nbsp;" style="rounded=0;whiteSpace=wrap;html=1;" vertex="1" parent="1">
          <mxGeometry x="3285" y="370" width="120" height="40" as="geometry" />
        </mxCell>
        <mxCell id="hWuVy-jcxDphh0jQvDJt-5" value="" style="endArrow=none;html=1;rounded=0;" edge="1" parent="1">
          <mxGeometry width="50" height="50" relative="1" as="geometry">
            <mxPoint x="2964.5" y="360" as="sourcePoint" />
            <mxPoint x="2964.5" y="170" as="targetPoint" />
          </mxGeometry>
        </mxCell>
        <mxCell id="hWuVy-jcxDphh0jQvDJt-6" value="" style="endArrow=classic;html=1;rounded=0;" edge="1" parent="1">
          <mxGeometry width="50" height="50" relative="1" as="geometry">
            <mxPoint x="2950" y="190" as="sourcePoint" />
            <mxPoint x="2950" y="350" as="targetPoint" />
          </mxGeometry>
        </mxCell>
        <mxCell id="hWuVy-jcxDphh0jQvDJt-7" value="1. Оформление заказа" style="text;html=1;align=center;verticalAlign=middle;whiteSpace=wrap;rounded=0;rotation=-90;" vertex="1" parent="1">
          <mxGeometry x="2855" y="250" width="170" height="20" as="geometry" />
        </mxCell>
        <mxCell id="hWuVy-jcxDphh0jQvDJt-8" value="" style="endArrow=classic;html=1;rounded=0;dashed=1;" edge="1" parent="1">
          <mxGeometry width="50" height="50" relative="1" as="geometry">
            <mxPoint x="2920" y="195" as="sourcePoint" />
            <mxPoint x="2920" y="335" as="targetPoint" />
          </mxGeometry>
        </mxCell>
        <mxCell id="hWuVy-jcxDphh0jQvDJt-9" value="2. Изменить или дополнить заказ" style="text;html=1;align=center;verticalAlign=middle;whiteSpace=wrap;rounded=0;rotation=-90;" vertex="1" parent="1">
          <mxGeometry x="2810" y="250" width="190" height="20" as="geometry" />
        </mxCell>
        <mxCell id="hWuVy-jcxDphh0jQvDJt-10" value="" style="endArrow=none;html=1;rounded=0;" edge="1" parent="1">
          <mxGeometry width="50" height="50" relative="1" as="geometry">
            <mxPoint x="3040" y="389" as="sourcePoint" />
            <mxPoint x="3275" y="389" as="targetPoint" />
          </mxGeometry>
        </mxCell>
        <mxCell id="hWuVy-jcxDphh0jQvDJt-11" value="3. Информация о заказе" style="text;html=1;align=center;verticalAlign=middle;whiteSpace=wrap;rounded=0;" vertex="1" parent="1">
          <mxGeometry x="3080" y="365" width="170" height="10" as="geometry" />
        </mxCell>
        <mxCell id="hWuVy-jcxDphh0jQvDJt-12" value="" style="endArrow=classic;html=1;rounded=0;" edge="1" parent="1">
          <mxGeometry width="50" height="50" relative="1" as="geometry">
            <mxPoint x="3060" y="379" as="sourcePoint" />
            <mxPoint x="3270" y="379" as="targetPoint" />
          </mxGeometry>
        </mxCell>
        <mxCell id="hWuVy-jcxDphh0jQvDJt-14" value="" style="curved=1;endArrow=classic;html=1;rounded=0;entryX=0.75;entryY=1;entryDx=0;entryDy=0;exitX=1;exitY=0.5;exitDx=0;exitDy=0;" edge="1" parent="1" source="hWuVy-jcxDphh0jQvDJt-4" target="hWuVy-jcxDphh0jQvDJt-4">
          <mxGeometry width="50" height="50" relative="1" as="geometry">
            <mxPoint x="3405.5" y="402.05" as="sourcePoint" />
            <mxPoint x="3370" y="420" as="targetPoint" />
            <Array as="points">
              <mxPoint x="3440.5" y="399.05" />
              <mxPoint x="3440.5" y="433.05" />
              <mxPoint x="3406" y="440" />
            </Array>
          </mxGeometry>
        </mxCell>
        <mxCell id="hWuVy-jcxDphh0jQvDJt-15" value="&lt;font style=&quot;font-size: 10px;&quot;&gt;4. Синхронизация тарифа и компьютера&amp;nbsp;&lt;/font&gt;" style="text;html=1;align=center;verticalAlign=middle;whiteSpace=wrap;rounded=0;" vertex="1" parent="1">
          <mxGeometry x="3350" y="440" width="130" height="30" as="geometry" />
        </mxCell>
        <mxCell id="hWuVy-jcxDphh0jQvDJt-16" value="" style="curved=1;endArrow=classic;html=1;rounded=0;entryX=0.25;entryY=1;entryDx=0;entryDy=0;exitX=1;exitY=0;exitDx=0;exitDy=0;" edge="1" parent="1" source="hWuVy-jcxDphh0jQvDJt-4" target="hWuVy-jcxDphh0jQvDJt-4">
          <mxGeometry width="50" height="50" relative="1" as="geometry">
            <mxPoint x="3405" y="380" as="sourcePoint" />
            <mxPoint x="3405" y="506" as="targetPoint" />
            <Array as="points">
              <mxPoint x="3460" y="380" />
              <mxPoint x="3500" y="410" />
              <mxPoint x="3490" y="500" />
              <mxPoint x="3390" y="520" />
            </Array>
          </mxGeometry>
        </mxCell>
        <mxCell id="hWuVy-jcxDphh0jQvDJt-17" value="&lt;font style=&quot;font-size: 11px;&quot;&gt;5. Проверка наличия свободного компьютера&lt;/font&gt;" style="text;html=1;align=center;verticalAlign=middle;whiteSpace=wrap;rounded=0;" vertex="1" parent="1">
          <mxGeometry x="3360" y="520" width="150" height="30" as="geometry" />
        </mxCell>
        <mxCell id="hWuVy-jcxDphh0jQvDJt-18" value="" style="endArrow=classic;html=1;rounded=0;" edge="1" parent="1">
          <mxGeometry width="50" height="50" relative="1" as="geometry">
            <mxPoint x="3270" y="400" as="sourcePoint" />
            <mxPoint x="3060" y="400" as="targetPoint" />
          </mxGeometry>
        </mxCell>
        <mxCell id="hWuVy-jcxDphh0jQvDJt-19" value="&lt;font style=&quot;font-size: 11px;&quot;&gt;6. Ответ о наличии свободных компьютеров&lt;/font&gt;" style="text;html=1;align=center;verticalAlign=middle;whiteSpace=wrap;rounded=0;" vertex="1" parent="1">
          <mxGeometry x="3100" y="410" width="130" height="20" as="geometry" />
        </mxCell>
        <mxCell id="hWuVy-jcxDphh0jQvDJt-20" value="&lt;font style=&quot;font-size: 10px;&quot;&gt;7. Предоставление актуальной информации и предложение альтернатив&amp;nbsp;&lt;/font&gt;" style="text;html=1;align=center;verticalAlign=middle;whiteSpace=wrap;rounded=0;rotation=-90;" vertex="1" parent="1">
          <mxGeometry x="2900" y="247.5" width="200" height="32.5" as="geometry" />
        </mxCell>
        <mxCell id="hWuVy-jcxDphh0jQvDJt-21" value="" style="endArrow=classic;html=1;rounded=0;" edge="1" parent="1">
          <mxGeometry width="50" height="50" relative="1" as="geometry">
            <mxPoint x="2980" y="350" as="sourcePoint" />
            <mxPoint x="2980" y="190" as="targetPoint" />
          </mxGeometry>
        </mxCell>
        <mxCell id="hWuVy-jcxDphh0jQvDJt-22" value="" style="endArrow=classic;html=1;rounded=0;" edge="1" parent="1">
          <mxGeometry width="50" height="50" relative="1" as="geometry">
            <mxPoint x="3260" y="440" as="sourcePoint" />
            <mxPoint x="3080" y="440" as="targetPoint" />
          </mxGeometry>
        </mxCell>
        <mxCell id="hWuVy-jcxDphh0jQvDJt-23" value="&lt;span style=&quot;font-size: 11px;&quot;&gt;8. Передача информации о готовом компьютере&amp;nbsp;&lt;/span&gt;" style="text;html=1;align=center;verticalAlign=middle;whiteSpace=wrap;rounded=0;" vertex="1" parent="1">
          <mxGeometry x="3095" y="449.99999999999994" width="140" height="30" as="geometry" />
        </mxCell>
        <mxCell id="hWuVy-jcxDphh0jQvDJt-24" value="" style="endArrow=classic;html=1;rounded=0;" edge="1" parent="1">
          <mxGeometry width="50" height="50" relative="1" as="geometry">
            <mxPoint x="3024" y="320" as="sourcePoint" />
            <mxPoint x="3024" y="210" as="targetPoint" />
          </mxGeometry>
        </mxCell>
        <mxCell id="hWuVy-jcxDphh0jQvDJt-25" value="&lt;span style=&quot;font-size: 11px;&quot;&gt;9. Предоставление игрового мета&amp;nbsp;&lt;/span&gt;" style="text;html=1;align=center;verticalAlign=middle;whiteSpace=wrap;rounded=0;rotation=-90;" vertex="1" parent="1">
          <mxGeometry x="2980" y="253.75" width="140" height="20" as="geometry" />
        </mxCell>
        <mxCell id="hWuVy-jcxDphh0jQvDJt-27" value="" style="endArrow=none;html=1;rounded=0;" edge="1" parent="1">
          <mxGeometry width="50" height="50" relative="1" as="geometry">
            <mxPoint x="3345" y="358.75" as="sourcePoint" />
            <mxPoint x="3345" y="230" as="targetPoint" />
          </mxGeometry>
        </mxCell>
        <mxCell id="hWuVy-jcxDphh0jQvDJt-29" value="" style="endArrow=classic;html=1;rounded=0;" edge="1" parent="1">
          <mxGeometry width="50" height="50" relative="1" as="geometry">
            <mxPoint x="3360" y="350" as="sourcePoint" />
            <mxPoint x="3360" y="250" as="targetPoint" />
          </mxGeometry>
        </mxCell>
        <mxCell id="hWuVy-jcxDphh0jQvDJt-30" value="10. Запрос о составлении счёта" style="text;html=1;align=center;verticalAlign=middle;whiteSpace=wrap;rounded=0;rotation=-90;" vertex="1" parent="1">
          <mxGeometry x="3308" y="295" width="140" height="20" as="geometry" />
        </mxCell>
        <mxCell id="hWuVy-jcxDphh0jQvDJt-31" value="" style="curved=1;endArrow=classic;html=1;rounded=0;exitX=0.75;exitY=0;exitDx=0;exitDy=0;" edge="1" parent="1" source="hWuVy-jcxDphh0jQvDJt-3">
          <mxGeometry width="50" height="50" relative="1" as="geometry">
            <mxPoint x="3405.5" y="153.5" as="sourcePoint" />
            <mxPoint x="3405" y="184.5" as="targetPoint" />
            <Array as="points">
              <mxPoint x="3405" y="140" />
              <mxPoint x="3440.5" y="150.5" />
              <mxPoint x="3440.5" y="184.5" />
            </Array>
          </mxGeometry>
        </mxCell>
        <mxCell id="hWuVy-jcxDphh0jQvDJt-32" value="&lt;font style=&quot;font-size: 11px;&quot;&gt;11. Обработка данных о заказе&lt;/font&gt;" style="text;html=1;align=center;verticalAlign=middle;whiteSpace=wrap;rounded=0;" vertex="1" parent="1">
          <mxGeometry x="3380" y="110" width="90" height="30" as="geometry" />
        </mxCell>
        <mxCell id="hWuVy-jcxDphh0jQvDJt-33" value="" style="endArrow=classic;html=1;rounded=0;" edge="1" parent="1">
          <mxGeometry width="50" height="50" relative="1" as="geometry">
            <mxPoint x="3330" y="247.5" as="sourcePoint" />
            <mxPoint x="3330" y="347.5" as="targetPoint" />
          </mxGeometry>
        </mxCell>
        <mxCell id="hWuVy-jcxDphh0jQvDJt-34" value="12. Предоставление данных для оплаты" style="text;html=1;align=center;verticalAlign=middle;whiteSpace=wrap;rounded=0;rotation=-90;" vertex="1" parent="1">
          <mxGeometry x="3235" y="290" width="135" height="20" as="geometry" />
        </mxCell>
        <mxCell id="hWuVy-jcxDphh0jQvDJt-35" value="" style="endArrow=classic;html=1;rounded=0;" edge="1" parent="1">
          <mxGeometry width="50" height="50" relative="1" as="geometry">
            <mxPoint x="3080" y="296.25" as="sourcePoint" />
            <mxPoint x="3080" y="231.25" as="targetPoint" />
          </mxGeometry>
        </mxCell>
        <mxCell id="hWuVy-jcxDphh0jQvDJt-36" value="13. Предоставление счёта" style="text;html=1;align=center;verticalAlign=middle;whiteSpace=wrap;rounded=0;rotation=-90;" vertex="1" parent="1">
          <mxGeometry x="3040" y="253.75" width="120" height="20" as="geometry" />
        </mxCell>
        <mxCell id="hWuVy-jcxDphh0jQvDJt-37" value="" style="endArrow=classic;html=1;rounded=0;" edge="1" parent="1">
          <mxGeometry width="50" height="50" relative="1" as="geometry">
            <mxPoint x="2890" y="210" as="sourcePoint" />
            <mxPoint x="2890" y="330" as="targetPoint" />
          </mxGeometry>
        </mxCell>
        <mxCell id="hWuVy-jcxDphh0jQvDJt-38" value="14. Произведение оплаты" style="text;html=1;align=center;verticalAlign=middle;whiteSpace=wrap;rounded=0;rotation=-90;" vertex="1" parent="1">
          <mxGeometry x="2800" y="253.75" width="130" height="20" as="geometry" />
        </mxCell>
      </root>
    </mxGraphModel>
  </diagram>
</mxfile>
